<svg width="142" height="142" viewBox="0 0 142 142" fill="none" xmlns="http://www.w3.org/2000/svg">
<path d="M71 112.001C93.6437 112.001 112 93.6444 112 71.0007C112 48.3571 93.6437 30.0007 71 30.0007C48.3563 30.0007 30 48.3571 30 71.0007C30 93.6444 48.3563 112.001 71 112.001Z" fill="#0DC332"/>
<path d="M133.5 71.0007C133.5 105.519 105.518 133.501 71 133.501C36.4822 133.501 8.5 105.519 8.5 71.0007C8.5 36.4829 36.4822 8.50073 71 8.50073C105.518 8.50073 133.5 36.4829 133.5 71.0007Z" stroke="#D1D1D1"/>
<path d="M92 56.0007L66.1538 85.0007L50 72.1118" stroke="white" stroke-width="6" stroke-miterlimit="10" stroke-linecap="round" stroke-linejoin="round"/>
</svg>
