<svg width="11" height="17" fill="none" xmlns="http://www.w3.org/2000/svg"><path d="M1.962 2.732c1.953-1.924 5.123-1.924 7.076 0 .864.852 1.364 2.102 1.45 3.41.084 1.307-.25 2.619-.986 3.585l-.006.008-.005.008L5.5 15.42 1.51 9.743l-.006-.008-.006-.008C.762 8.761.428 7.45.513 6.141c.085-1.307.584-2.557 1.449-3.409zm0 0l-.351-.356m.35.356l-.35-.356m0 0C3.759.26 7.24.26 9.389 2.376c1.935 1.907 2.153 5.497.51 7.654H1.1c-1.642-2.157-1.424-5.747.51-7.654zm1.627 3.779c0 1.27 1.044 2.288 2.316 2.288 1.271 0 2.315-1.017 2.315-2.288S6.825 3.866 5.554 3.866c-1.272 0-2.316 1.018-2.316 2.289z" stroke="#fff"/></svg>