<svg width="17" height="17" fill="none" xmlns="http://www.w3.org/2000/svg"><path d="M9.503 15.416c.695.279 1.282.454 1.762.525.48.071.828.107 1.043.107.09 0 .164-.003.22-.008m-3.025-.624l4.008.189c-.101.11-.234.202-.398.279a1.686 1.686 0 01-.483.148m-3.127-.616c-.695-.28-1.483-.698-2.365-1.256l2.365 1.256zm3.025.624a1.77 1.77 0 01.102-.008m-.102.008l-.048-.498h0m.048.498l-.048-.498m.15.49v-.5c-.014 0-.032 0-.05.002m.05.498l-.068-.496.018-.002m0 0a1.21 1.21 0 00.321-.103h0a.774.774 0 00.244-.167l.01-.01.01-.01 2.253-2.166s0 0 0 0c.078-.076.098-.136.091-.212-.014-.05-.053-.117-.183-.197l-3.151-1.803h-.019l-.116-.067c-.01-.006-.064-.031-.207-.031a.557.557 0 00-.374.132l-.953.94-.003.002h0a.775.775 0 01-.304.174h0a.88.88 0 01-.264.05h-.048l-.047-.01-.212-.041s0 0 0 0c-.21-.04-.464-.146-.737-.28a8.337 8.337 0 01-1.058-.656h0c-.425-.3-.897-.71-1.415-1.224-.53-.501-.951-.957-1.256-1.365a7.703 7.703 0 01-.67-1.027 3.39 3.39 0 01-.353-.925l-.01-.047v-.05c0-.11.028-.21.054-.285a.763.763 0 01.184-.303l.348.359-.348-.36.83-.804a.515.515 0 00.148-.272.28.28 0 00-.029-.218l-.007-.012h0L3.507 1.233a.651.651 0 00-.154-.158.148.148 0 00-.096-.028c-.062 0-.121.018-.194.089L.808 3.32l-.01.009-.009.009a.738.738 0 00-.17.232 1.09 1.09 0 00-.1.293l-.017.309c-.008.142.008.371.062.703.05.31.15.694.303 1.155.147.441.37.945.677 1.513h0a15.01 15.01 0 001.214 1.85c.5.662 1.136 1.365 1.912 2.106l.005.005h0c.977.957 1.887 1.699 2.731 2.233h0c.865.548 1.625.95 2.283 1.215h0c.676.271 1.223.431 1.65.495.478.07.794.101.969.101.082 0 .138-.002.172-.006m.1-.008l-.095.008h-.005" stroke="#fff"/></svg>